<svg width="240" height="240" viewBox="0 0 240 240" xmlns="http://www.w3.org/2000/svg" role="img" aria-label="Healthy bright tooth">
  <rect width="240" height="240" rx="30" fill="#eaf8f1"/>
  <g transform="translate(50 24)">
    <path d="M70 16c-30 0-52 24-52 54 0 24 14 47 14 72 0 13 10 24 23 24 9 0 16-6 20-13l4-9 4 9c4 7 11 13 20 13 13 0 23-11 23-24 0-25 14-48 14-72 0-30-22-54-52-54h-18z" fill="#f9fffc" stroke="#d2eade" stroke-width="6"/>
    <path d="M58 62c10-12 34-13 46-3" stroke="#a2cbb7" stroke-width="8" stroke-linecap="round" fill="none"/>
    <ellipse cx="70" cy="96" rx="7" ry="10" fill="#e9f6ef"/>
    <ellipse cx="98" cy="94" rx="7" ry="10" fill="#e9f6ef"/>
    <path d="M128 43l4 10 10 4-10 4-4 10-4-10-10-4 10-4z" fill="#9fd8bb"/>
  </g>
</svg>
